<?xml version="1.0" encoding="UTF-8" standalone="no"?>
<!-- Created with Inkscape (http://www.inkscape.org/) -->

<svg
   xmlns:dc="http://purl.org/dc/elements/1.1/"
   xmlns:cc="http://creativecommons.org/ns#"
   xmlns:rdf="http://www.w3.org/1999/02/22-rdf-syntax-ns#"
   xmlns:svg="http://www.w3.org/2000/svg"
   xmlns="http://www.w3.org/2000/svg"
   xmlns:sodipodi="http://sodipodi.sourceforge.net/DTD/sodipodi-0.dtd"
   xmlns:inkscape="http://www.inkscape.org/namespaces/inkscape"
   width="64px"
   height="64px"
   id="svg2985"
   version="1.1"
   inkscape:version="0.48.4 r9939"
   sodipodi:docname="New document 2">
  <defs
     id="defs2987" />
  <sodipodi:namedview
     id="base"
     pagecolor="#ffffff"
     bordercolor="#666666"
     borderopacity="1.0"
     inkscape:pageopacity="0.0"
     inkscape:pageshadow="2"
     inkscape:zoom="5.5"
     inkscape:cx="32"
     inkscape:cy="32"
     inkscape:current-layer="layer1"
     showgrid="true"
     inkscape:document-units="px"
     inkscape:grid-bbox="true"
     inkscape:window-width="1600"
     inkscape:window-height="845"
     inkscape:window-x="0"
     inkscape:window-y="30"
     inkscape:window-maximized="1" />
  <metadata
     id="metadata2990">
    <rdf:RDF>
      <cc:Work
         rdf:about="">
        <dc:format>image/svg+xml</dc:format>
        <dc:type
           rdf:resource="http://purl.org/dc/dcmitype/StillImage" />
        <dc:title></dc:title>
      </cc:Work>
    </rdf:RDF>
  </metadata>
  <g
     id="layer1"
     inkscape:label="Layer 1"
     inkscape:groupmode="layer">
    <path
       d="m 4.9504526,5.5966993 c 0,0 0.03157,20.3505327 0.03157,20.3505327 0,0 -0.65772,6.7081 6.7455734,12.695407 9.471164,6.608136 17.98469,0.92072 17.98469,0.92072 0,0 -8.481955,-16.14679 -8.481955,-16.14679 0,0 17.395373,-0.0684 17.395373,-0.0684 0,0 0.03157,-17.9514007 0.03157,-17.9514007 0,0 -33.6436814,-0.06314 -33.6436814,-0.06314 M 24.355815,25.452666 c 0,0 17.426944,33.577327 17.426944,33.577327 0,0 17.463774,-33.577327 17.463774,-33.577327 0,0 -34.874932,-0.147315 -34.874932,-0.147315"
       id="Sin nombre #1"
       inkscape:connector-curvature="0"
       style="fill:none;stroke:#000000;stroke-width:1" />
  </g>
</svg>
